<?xml version="1.0" encoding="UTF-8" standalone="no"?>
<!-- Created with Inkscape (http://www.inkscape.org/) -->

<svg
   version="1.1"
   id="svg1"
   width="393.23923"
   height="63.037598"
   viewBox="0 0 393.23922 63.037597"
   xmlns="http://www.w3.org/2000/svg"
   xmlns:svg="http://www.w3.org/2000/svg">
  <defs
     id="defs1">
    <clipPath
       clipPathUnits="userSpaceOnUse"
       id="clipPath5">
      <path
         d="M 0,841.89 H 595.276 V 0 H 0 Z"
         transform="translate(-444.96141,-435.00701)"
         id="path5" />
    </clipPath>
    <clipPath
       clipPathUnits="userSpaceOnUse"
       id="clipPath7">
      <path
         d="M 0,841.89 H 595.276 V 0 H 0 Z"
         transform="translate(-443.86921,-420.70921)"
         id="path7" />
    </clipPath>
    <clipPath
       clipPathUnits="userSpaceOnUse"
       id="clipPath9">
      <path
         d="M 0,841.89 H 595.276 V 0 H 0 Z"
         transform="translate(-444.52761,-411.14401)"
         id="path9" />
    </clipPath>
    <clipPath
       clipPathUnits="userSpaceOnUse"
       id="clipPath11">
      <path
         d="M 0,841.89 H 595.276 V 0 H 0 Z"
         transform="translate(-153.5392,-454.55821)"
         id="path11" />
    </clipPath>
    <clipPath
       clipPathUnits="userSpaceOnUse"
       id="clipPath13">
      <path
         d="M 0,841.89 H 595.276 V 0 H 0 Z"
         transform="translate(-223.85811,-433.61271)"
         id="path13" />
    </clipPath>
    <clipPath
       clipPathUnits="userSpaceOnUse"
       id="clipPath15">
      <path
         d="M 0,841.89 H 595.276 V 0 H 0 Z"
         transform="translate(-239.38231,-412.60501)"
         id="path15" />
    </clipPath>
    <clipPath
       clipPathUnits="userSpaceOnUse"
       id="clipPath17">
      <path
         d="M 0,841.89 H 595.276 V 0 H 0 Z"
         transform="translate(-291.18571,-413.35321)"
         id="path17" />
    </clipPath>
    <clipPath
       clipPathUnits="userSpaceOnUse"
       id="clipPath19">
      <path
         d="M 0,841.89 H 595.276 V 0 H 0 Z"
         transform="translate(-334.32471,-428.81271)"
         id="path19" />
    </clipPath>
    <clipPath
       clipPathUnits="userSpaceOnUse"
       id="clipPath21">
      <path
         d="M 0,841.89 H 595.276 V 0 H 0 Z"
         transform="translate(-382.26431,-454.55821)"
         id="path21" />
    </clipPath>
    <clipPath
       clipPathUnits="userSpaceOnUse"
       id="clipPath23">
      <path
         d="M 0,841.89 H 595.276 V 0 H 0 Z"
         transform="translate(-431.13821,-433.61271)"
         id="path23" />
    </clipPath>
  </defs>
  <g
     id="layer-MC0"
     transform="translate(-200.23093,-516.02644)">
    <path
       id="path3"
       d="m 0,0 v -7.03 h -0.533 v 6.529 l -0.418,-0.272 -0.063,0.104 z"
       style="fill:#dd8132;fill-opacity:1;fill-rule:nonzero;stroke:none"
       transform="matrix(1.3333333,0,0,-1.3333333,590.7056,519.46413)" />
    <path
       id="path4"
       d="m 0,0 c 0,-1.442 -1.097,-2.33 -2.456,-2.33 -1.242,0 -2.266,0.784 -2.423,1.996 l 0.575,0.365 V 0 c 0,-1.337 0.824,-2.215 1.848,-2.215 1.024,0 1.85,0.836 1.85,2.215 0,1.368 -0.836,2.204 -1.86,2.214 h -0.02 c -1.348,0 -1.881,-0.981 -1.881,-0.981 l -0.105,0.062 0.22,3.447 h 3.646 V 3.938 C -0.732,4.043 -0.962,4.21 -1.526,4.21 H -4.179 L -4.356,1.441 c 0.469,0.575 1.075,0.888 1.9,0.888 C -1.097,2.329 0,1.431 0,0"
       style="fill:#dd8132;fill-opacity:1;fill-rule:nonzero;stroke:none"
       transform="matrix(1.3333333,0,0,-1.3333333,593.28187,542.51067)"
       clip-path="url(#clipPath5)" />
    <path
       id="path6"
       d="m 0,0 c 0.564,0 0.804,0.167 0.93,0.272 v -0.805 h -4.67 c 0,0 0.062,0.387 0.345,0.805 0.178,0.261 0.605,0.856 1.755,1.504 0.616,0.345 2.099,1.107 2.099,2.601 v 0.032 c 0,1.326 -0.866,2.026 -1.765,2.026 H -1.389 C -2.413,6.383 -3.239,5.557 -3.239,4.21 V 4.178 l -0.585,0.366 c 0.168,1.223 1.192,1.995 2.435,1.995 1.024,0 2.381,-0.386 2.455,-2.026 V 4.44 C 1.066,2.936 -0.742,2.1 -1.003,1.954 -1.317,1.786 -1.63,1.619 -1.932,1.442 -2.831,0.919 -3.281,0.303 -3.416,0 Z"
       style="fill:#dd8132;fill-opacity:1;fill-rule:nonzero;stroke:none"
       transform="matrix(1.3333333,0,0,-1.3333333,591.8256,561.5744)"
       clip-path="url(#clipPath7)" />
    <path
       id="path8"
       d="M 0,0 C 0,2.1 -0.898,3.437 -2.006,3.437 -3.103,3.437 -4.001,2.1 -4.001,0 c 0,-2.152 0.898,-3.437 1.995,-3.437 C -0.898,-3.437 0,-2.204 0,0 m 0.575,0 c 0,-2.267 -1.15,-3.552 -2.581,-3.552 -1.421,0 -2.58,1.327 -2.58,3.552 0,2.162 1.159,3.552 2.58,3.552 1.431,0 2.581,-1.39 2.581,-3.552"
       style="fill:#dd8132;fill-opacity:1;fill-rule:nonzero;stroke:none"
       transform="matrix(1.3333333,0,0,-1.3333333,592.70347,574.328)"
       clip-path="url(#clipPath9)" />
    <path
       id="path10"
       d="m 0,0 10.784,-39.273 c 0.25,-0.872 0.998,-1.371 1.809,-1.371 0.748,0 1.495,0.499 1.745,1.371 L 25.184,0 h 0.624 L 15.086,-39.023 c -0.499,-1.933 -2.182,-2.93 -3.803,-2.93 -1.683,0 -3.304,0.997 -3.865,2.93 L -3.366,0 Z"
       style="fill:#dd8132;fill-opacity:1;fill-rule:nonzero;stroke:none"
       transform="matrix(1.3333333,0,0,-1.3333333,204.71893,516.4424)"
       clip-path="url(#clipPath11)" />
    <path
       id="path12"
       d="m 0,0 c 0,11.969 -7.481,20.634 -16.707,20.634 -9.225,0 -16.644,-8.603 -16.644,-20.634 0,-12.031 7.419,-20.634 16.644,-20.634 C -7.481,-20.634 0,-12.218 0,0 m 3.678,0 c 0,-12.592 -9.102,-21.257 -20.385,-21.257 -11.22,0 -20.322,8.852 -20.322,21.257 0,12.405 9.102,21.257 20.322,21.257 C -5.424,21.257 3.678,12.343 3.678,0"
       style="fill:#dd8132;fill-opacity:1;fill-rule:nonzero;stroke:none"
       transform="matrix(1.3333333,0,0,-1.3333333,298.47747,544.36973)"
       clip-path="url(#clipPath13)" />
    <path
       id="path14"
       d="M 0,0 V 41.953 H 3.179 V 0.623 h 9.102 c 5.548,0 8.852,1.808 11.033,3.117 V 0 Z"
       style="fill:#dd8132;fill-opacity:1;fill-rule:nonzero;stroke:none"
       transform="matrix(1.3333333,0,0,-1.3333333,319.1764,572.38)"
       clip-path="url(#clipPath15)" />
    <path
       id="path16"
       d="M 0,0 C 4.364,0 9.227,1.496 13.403,6.109 L 13.901,5.735 C 10.161,1.496 4.8,-0.997 -1.247,-0.997 c -11.283,0 -20.384,8.851 -20.384,21.257 0,12.405 9.101,21.257 20.384,21.257 7.668,0 12.717,-3.429 15.523,-9.289 L 11.72,30.795 C 9.6,36.966 6.047,40.894 -1.247,40.894 c -9.226,0 -16.706,-8.603 -16.706,-20.634 0,-12.032 7.48,-19.699 16.644,-20.198 C -0.873,0.062 -0.436,0 0,0"
       style="fill:#dd8132;fill-opacity:1;fill-rule:nonzero;stroke:none"
       transform="matrix(1.3333333,0,0,-1.3333333,388.2476,571.3824)"
       clip-path="url(#clipPath17)" />
    <path
       id="path18"
       d="M 0,0 -6.296,23.065 C -6.545,24 -7.293,24.437 -8.041,24.437 -8.852,24.437 -9.6,24 -9.849,23.065 L -18.95,-9.974 c -0.25,-0.686 -0.437,-1.683 -0.437,-2.618 0,-0.873 0.187,-1.621 0.686,-2.057 0.437,-0.312 0.873,-0.499 1.434,-0.499 0.934,0 1.932,0.561 2.68,1.496 C -9.724,-7.418 -9.537,-2.68 0,0 M 7.793,-16.208 H 4.489 L 0.187,-0.623 c -5.984,-1.372 -7.231,-4.177 -9.351,-8.915 -1.557,-3.428 -3.303,-6.857 -6.981,-6.857 h -0.188 c -1.308,0.062 -2.243,0.312 -2.867,0.998 -0.498,0.499 -0.748,1.122 -0.81,1.745 0,0.062 -0.063,0.062 -0.063,0.062 -0.062,0.312 -0.062,0.624 -0.062,0.936 0,0.623 0.062,1.309 0.25,1.87 l 9.288,33.662 c 0.561,1.933 2.181,2.93 3.865,2.93 1.621,0 3.304,-0.997 3.802,-2.93 z"
       style="fill:#dd8132;fill-opacity:1;fill-rule:nonzero;stroke:none"
       transform="matrix(1.3333333,0,0,-1.3333333,445.76627,550.76973)"
       clip-path="url(#clipPath19)" />
    <path
       id="path20"
       d="M 0,0 V -41.953 H -3.74 L -27.678,-1.06 v -40.893 h -0.623 V 0 h 3.74 L -0.624,-40.894 V 0 Z"
       style="fill:#dd8132;fill-opacity:1;fill-rule:nonzero;stroke:none"
       transform="matrix(1.3333333,0,0,-1.3333333,509.68573,516.4424)"
       clip-path="url(#clipPath21)" />
    <path
       id="path22"
       d="m 0,0 c 0,11.969 -7.481,20.634 -16.707,20.634 -9.225,0 -16.644,-8.603 -16.644,-20.634 0,-12.031 7.419,-20.634 16.644,-20.634 C -7.481,-20.634 0,-12.218 0,0 m 3.678,0 c 0,-12.592 -9.102,-21.257 -20.385,-21.257 -11.22,0 -20.322,8.852 -20.322,21.257 0,12.405 9.102,21.257 20.322,21.257 C -5.424,21.257 3.678,12.343 3.678,0"
       style="fill:#dd8132;fill-opacity:1;fill-rule:nonzero;stroke:none"
       transform="matrix(1.3333333,0,0,-1.3333333,574.85093,544.36973)"
       clip-path="url(#clipPath23)" />
  </g>
</svg>
