<?xml version="1.0" encoding="UTF-8" standalone="no"?>
<!-- Created with Inkscape (http://www.inkscape.org/) -->

<svg
   version="1.1"
   id="svg1"
   width="393.23923"
   height="82.872009"
   viewBox="0 0 393.23922 82.872008"
   xmlns="http://www.w3.org/2000/svg"
   xmlns:svg="http://www.w3.org/2000/svg">
  <defs
     id="defs1">
    <clipPath
       clipPathUnits="userSpaceOnUse"
       id="clipPath5">
      <path
         d="M 0,841.89 H 595.276 V 0 H 0 Z"
         transform="translate(-444.96141,-435.00701)"
         id="path5" />
    </clipPath>
    <clipPath
       clipPathUnits="userSpaceOnUse"
       id="clipPath7">
      <path
         d="M 0,841.89 H 595.276 V 0 H 0 Z"
         transform="translate(-443.86921,-420.70921)"
         id="path7" />
    </clipPath>
    <clipPath
       clipPathUnits="userSpaceOnUse"
       id="clipPath9">
      <path
         d="M 0,841.89 H 595.276 V 0 H 0 Z"
         transform="translate(-444.52761,-411.14401)"
         id="path9" />
    </clipPath>
    <clipPath
       clipPathUnits="userSpaceOnUse"
       id="clipPath11">
      <path
         d="M 0,841.89 H 595.276 V 0 H 0 Z"
         transform="translate(-153.5392,-454.55821)"
         id="path11" />
    </clipPath>
    <clipPath
       clipPathUnits="userSpaceOnUse"
       id="clipPath13">
      <path
         d="M 0,841.89 H 595.276 V 0 H 0 Z"
         transform="translate(-223.85811,-433.61271)"
         id="path13" />
    </clipPath>
    <clipPath
       clipPathUnits="userSpaceOnUse"
       id="clipPath15">
      <path
         d="M 0,841.89 H 595.276 V 0 H 0 Z"
         transform="translate(-239.38231,-412.60501)"
         id="path15" />
    </clipPath>
    <clipPath
       clipPathUnits="userSpaceOnUse"
       id="clipPath17">
      <path
         d="M 0,841.89 H 595.276 V 0 H 0 Z"
         transform="translate(-291.18571,-413.35321)"
         id="path17" />
    </clipPath>
    <clipPath
       clipPathUnits="userSpaceOnUse"
       id="clipPath19">
      <path
         d="M 0,841.89 H 595.276 V 0 H 0 Z"
         transform="translate(-334.32471,-428.81271)"
         id="path19" />
    </clipPath>
    <clipPath
       clipPathUnits="userSpaceOnUse"
       id="clipPath21">
      <path
         d="M 0,841.89 H 595.276 V 0 H 0 Z"
         transform="translate(-382.26431,-454.55821)"
         id="path21" />
    </clipPath>
    <clipPath
       clipPathUnits="userSpaceOnUse"
       id="clipPath23">
      <path
         d="M 0,841.89 H 595.276 V 0 H 0 Z"
         transform="translate(-431.13821,-433.61271)"
         id="path23" />
    </clipPath>
  </defs>
  <g
     id="layer-MC0"
     transform="translate(-200.23093,-516.02644)">
    <path
       id="path2"
       d="M 5.2397125,-0.17468438 C 3.2944,-0.28015313 1.7123688,-1.9090594 1.7123688,-4.4637469 c 0,-2.5546875 1.5820312,-4.3828125 3.5507812,-4.3828125 1.546875,0 2.296875,0.8320313 2.7539063,2.1445313 l 0.5390625,-0.3046875 c -0.5976563,-1.2421875 -1.6640625,-1.96875 -3.2929688,-1.96875 -2.4023437,0 -4.3359375,1.875 -4.3359375,4.5117187 0,2.6367188 1.9335938,4.52343752 4.3359375,4.52343752 1.2773438,0 2.4140625,-0.5390625 3.2109375,-1.44140622 l -0.1054687,-0.070312 c -0.890625,0.97265622 -1.921875,1.28906247 -2.8476563,1.28906247 -0.09375,0 -0.1875,-0.0117188 -0.28125,-0.0117192 z M 16.677213,-8.9051531 v 4.3007812 H 11.743619 V -8.9051531 H 11.07565 v 8.90624997 h 0.667969 V -4.4754656 h 4.933594 V 0.00109687 H 17.3569 V -8.9051531 Z m 7.511718,-0.070312 c -2.378906,0 -4.3125,1.875 -4.3125,4.5117187 0,2.6367188 1.933594,4.52343752 4.3125,4.52343752 2.402344,0 4.335938,-1.85156252 4.335938,-4.52343752 0,-2.625 -1.933594,-4.5117187 -4.335938,-4.5117187 z m 0,8.89453122 c -1.957031,0 -3.527343,-1.82812502 -3.527343,-4.38281252 0,-2.5546875 1.570312,-4.3828125 3.527343,-4.3828125 1.96875,0 3.550782,1.8398438 3.550782,4.3828125 0,2.6015625 -1.582032,4.38281252 -3.550782,4.38281252 z m 10.50293,-0.09375 c -1.945313,-0.10546875 -3.527344,-1.73437502 -3.527344,-4.28906252 0,-2.5546875 1.582031,-4.3828125 3.550781,-4.3828125 1.546875,0 2.296875,0.8320313 2.753907,2.1445313 l 0.539062,-0.3046875 c -0.597656,-1.2421875 -1.664062,-1.96875 -3.292969,-1.96875 -2.402343,0 -4.335937,1.875 -4.335937,4.5117187 0,2.6367188 1.933594,4.52343752 4.335937,4.52343752 1.277344,0 2.414063,-0.5390625 3.210938,-1.44140622 l -0.105469,-0.070312 c -0.890625,0.97265622 -1.921875,1.28906247 -2.847656,1.28906247 -0.09375,0 -0.1875,-0.0117188 -0.28125,-0.0117193 z m 9.615234,-8.80078122 c -2.378906,0 -4.3125,1.875 -4.3125,4.5117187 0,2.6367188 1.933594,4.52343752 4.3125,4.52343752 2.402344,0 4.335938,-1.85156252 4.335938,-4.52343752 0,-2.625 -1.933594,-4.5117187 -4.335938,-4.5117187 z m 0,8.89453122 c -1.957031,0 -3.527343,-1.82812502 -3.527343,-4.38281252 0,-2.5546875 1.570312,-4.3828125 3.527343,-4.3828125 1.96875,0 3.550782,1.8398438 3.550782,4.3828125 0,2.6015625 -1.582032,4.38281252 -3.550782,4.38281252 z m 11.800782,0.08203125 v -0.796875 c -0.457032,0.28125 -1.160157,0.66796875 -2.34375,0.66796875 H 51.830533 V -8.9051531 H 51.162564 V 0.00109687 Z M 61.88522,-8.3074969 c -0.105468,-0.4101562 -0.46875,-0.6210937 -0.808593,-0.6210937 -0.351563,0 -0.703125,0.2109375 -0.820313,0.6210937 l -1.96875,7.1601563 c -0.04687,0.1171875 -0.05859,0.25781247 -0.05859,0.39843747 0,0.0585938 0,0.12890625 0.01172,0.19921875 0,0 0.01172,0 0.01172,0.0117188 0.01172,0.12890625 0.07031,0.2578125 0.175781,0.36328125 0.128906,0.15234375 0.328125,0.19921875 0.609375,0.2109375 h 0.03516 c 0.785157,0 1.160157,-0.7265625 1.488282,-1.45312507 0.445312,-1.0078125 0.714843,-1.6054687 1.980468,-1.8984375 l 0.914063,3.31640632 h 0.703125 z m -2.472656,7.76953127 c -0.164062,0.19921875 -0.375,0.31640625 -0.574219,0.31640625 -0.117187,0 -0.210937,-0.046875 -0.304687,-0.10546875 -0.105469,-0.09375 -0.140625,-0.2578125 -0.140625,-0.4453125 0,-0.1875 0.03516,-0.41015627 0.09375,-0.55078127 l 1.933594,-7.0195312 c 0.04687,-0.1992188 0.210937,-0.2929688 0.375,-0.2929688 0.164062,0 0.316406,0.09375 0.375,0.2929688 l 1.335937,4.8984375 c -2.027344,0.5742187 -2.0625,1.5820312 -3.09375,2.90624997 z M 65.35397,-8.9051531 v 0.7851562 c 0.480469,-0.2695312 1.171875,-0.65625 2.34375,-0.65625 h 0.527344 V 0.00109687 H 68.91647 V -8.7762469 h 0.527344 c 1.183594,0 1.886719,0.3867188 2.34375,0.65625 v -0.7851562 z m 11.557618,0.1289062 c 1.183593,0 1.886718,0.3867188 2.355468,0.65625 v -0.7851562 h -4.957031 v 8.90624997 h 4.957031 v -0.796875 c -0.46875,0.28125 -1.171875,0.66796875 -2.355468,0.66796875 H 74.977994 V -4.4754656 h 0.820312 c 0.457032,0 1.371094,0.011719 2.003907,0.4921875 v -1.125 c -0.550782,0.46875 -1.371094,0.5039062 -1.863282,0.5039062 h -0.960937 v -4.171875 z m 12.916992,0.46875 c -0.105469,-0.4101562 -0.46875,-0.6210937 -0.808594,-0.6210937 -0.351563,0 -0.703125,0.2109375 -0.820313,0.6210937 l -1.96875,7.1601563 c -0.04687,0.1171875 -0.05859,0.25781247 -0.05859,0.39843747 0,0.0585938 0,0.12890625 0.01172,0.19921875 0,0 0.01172,0 0.01172,0.0117188 0.01172,0.12890625 0.07031,0.2578125 0.175781,0.36328125 0.128907,0.15234375 0.328125,0.19921875 0.609375,0.2109375 h 0.03516 c 0.785156,0 1.160156,-0.7265625 1.488281,-1.45312507 0.445312,-1.0078125 0.714844,-1.6054687 1.980469,-1.8984375 l 0.914062,3.31640632 h 0.703125 z m -2.472657,7.76953127 c -0.164062,0.19921875 -0.375,0.31640625 -0.574218,0.31640625 -0.117188,0 -0.210938,-0.046875 -0.304688,-0.10546875 -0.105469,-0.09375 -0.140625,-0.2578125 -0.140625,-0.4453125 0,-0.1875 0.03516,-0.41015627 0.09375,-0.55078127 l 1.933594,-7.0195312 c 0.04687,-0.1992188 0.210937,-0.2929688 0.375,-0.2929688 0.164062,0 0.316406,0.09375 0.375,0.2929688 l 1.335937,4.8984375 c -2.027343,0.5742187 -2.0625,1.5820312 -3.09375,2.90624997 z M 100.4985,-8.9051531 v 8.68359372 L 95.424283,-8.9051531 h -0.796875 v 8.90624997 h 0.128906 V -8.6824969 l 5.085938,8.68359377 h 0.796878 V -8.9051531 Z m 2.9209,0 v 8.90624997 h 2.74219 c 2.60156,0 4.32422,-1.79296877 4.32422,-4.46484377 0,-2.625 -1.78125,-4.4414062 -4.32422,-4.4414062 z m 0.66797,8.77734372 V -8.7762469 h 2.07422 c 2.09765,0 3.53906,1.7695313 3.53906,4.3125 0,2.6015625 -1.38281,4.33593752 -3.53906,4.33593752 z m 13.30371,-8.77734372 v 8.90624997 h 2.74219 c 2.60156,0 4.32422,-1.79296877 4.32422,-4.46484377 0,-2.625 -1.78125,-4.4414062 -4.32422,-4.4414062 z m 0.66797,8.77734372 V -8.7762469 h 2.07422 c 2.09765,0 3.53906,1.7695313 3.53906,4.3125 0,2.6015625 -1.38281,4.33593752 -3.53906,4.33593752 z m 11.52246,-8.64843752 c 1.18359,0 1.88672,0.3867188 2.35547,0.65625 v -0.7851562 h -4.95703 v 8.90624997 h 4.95703 v -0.796875 c -0.46875,0.28125 -1.17188,0.66796875 -2.35547,0.66796875 h -1.93359 V -4.4754656 h 0.82031 c 0.45703,0 1.37109,0.011719 2.0039,0.4921875 v -1.125 c -0.55078,0.46875 -1.37109,0.5039062 -1.86328,0.5039062 h -0.96093 v -4.171875 z m 10.77246,6.5390625 c 0,-0.7851562 -0.45703,-1.546875 -1.10156,-1.9570312 -0.55078,-0.3632813 -1.24219,-0.5976563 -1.85156,-0.8789063 -0.45704,-0.1992187 -0.90235,-0.4101562 -1.34766,-0.609375 -0.39844,-0.1640625 -0.84375,-0.328125 -1.07813,-0.7148437 -0.1289,-0.1992188 -0.1875,-0.4335938 -0.1875,-0.6679688 0,-0.9726562 1.00782,-1.78125 2.44922,-1.78125 1.5586,0 2.03907,1.1132813 2.21485,1.40625 0.0586,-0.082031 0.55078,-0.5039062 0.55078,-0.5039062 -0.375,-0.328125 -1.17188,-1.0429688 -2.76563,-1.0429688 -1.23047,0 -1.8164,0.2929688 -2.17968,0.515625 -0.4336,0.2460938 -0.77344,0.6328125 -0.89063,1.125 -0.0234,0.140625 -0.0469,0.28125 -0.0469,0.421875 0,0.328125 0.0937,0.6679688 0.26953,0.9375 0.24609,0.3867188 0.64453,0.609375 1.03125,0.796875 l 2.73047,1.2304688 c 0.80859,0.375 1.46484,1.0195312 1.46484,1.921875 0,0.082031 0,0.1757812 -0.0234,0.2695312 -0.15234,1.17187502 -1.26562,1.68750002 -2.35547,1.68750002 -0.97265,0 -2.0625,-0.80859375 -2.44922,-2.19140622 l -0.65625,0.5390625 c 0.38672,0.6445312 1.40625,1.79296872 3.10547,1.79296872 0.59766,0 1.20703,-0.08203125 1.7461,-0.33984375 0.63281,-0.29296875 1.14843,-0.82031247 1.3125,-1.51171877 0.0352,-0.140625 0.0586,-0.28125 0.0586,-0.4453125 z m 8.14453,0 c 0,-0.7851562 -0.45703,-1.546875 -1.10156,-1.9570312 -0.55078,-0.3632813 -1.24219,-0.5976563 -1.85156,-0.8789063 -0.45703,-0.1992187 -0.90235,-0.4101562 -1.34766,-0.609375 -0.39844,-0.1640625 -0.84375,-0.328125 -1.07812,-0.7148437 -0.12891,-0.1992188 -0.1875,-0.4335938 -0.1875,-0.6679688 0,-0.9726562 1.00781,-1.78125 2.44921,-1.78125 1.5586,0 2.03907,1.1132813 2.21485,1.40625 0.0586,-0.082031 0.55078,-0.5039062 0.55078,-0.5039062 -0.375,-0.328125 -1.17188,-1.0429688 -2.76563,-1.0429688 -1.23046,0 -1.8164,0.2929688 -2.17968,0.515625 -0.4336,0.2460938 -0.77344,0.6328125 -0.89063,1.125 -0.0234,0.140625 -0.0469,0.28125 -0.0469,0.421875 0,0.328125 0.0937,0.6679688 0.26953,0.9375 0.24609,0.3867188 0.64453,0.609375 1.03125,0.796875 l 2.73047,1.2304688 c 0.80859,0.375 1.46484,1.0195312 1.46484,1.921875 0,0.082031 0,0.1757812 -0.0234,0.2695312 -0.15234,1.17187502 -1.26562,1.68750002 -2.35547,1.68750002 -0.97265,0 -2.0625,-0.80859375 -2.44921,-2.19140622 l -0.65625,0.5390625 c 0.38671,0.6445312 1.40625,1.79296872 3.10546,1.79296872 0.59766,0 1.20704,-0.08203125 1.7461,-0.33984375 0.63281,-0.29296875 1.14844,-0.82031247 1.3125,-1.51171877 0.0352,-0.140625 0.0586,-0.28125 0.0586,-0.4453125 z m 5.11817,-6.5390625 c 1.18359,0 1.88671,0.3867188 2.35546,0.65625 v -0.7851562 h -4.95703 v 8.90624997 h 4.95703 v -0.796875 c -0.46875,0.28125 -1.17187,0.66796875 -2.35546,0.66796875 h -1.9336 V -4.4754656 h 0.82031 c 0.45704,0 1.3711,0.011719 2.00391,0.4921875 v -1.125 c -0.55078,0.46875 -1.37109,0.5039062 -1.86328,0.5039062 h -0.96094 v -4.171875 z m 11.90918,8.15625002 c 0,0 -0.28125,0.45703125 -0.72657,0.45703125 -0.11718,0 -0.24609,-0.0351563 -0.39843,-0.1171875 -0.31641,-0.1640625 -0.4336,-0.62109375 -0.59766,-1.00781247 -0.21094,-0.4570313 -0.30469,-1.0195313 -0.65625,-1.4648438 -0.5625,-0.7148437 -2.00391,-1.0546875 -2.00391,-1.0546875 -0.30468,-0.09375 -0.52734,-0.1875 -0.55078,-0.3398437 0,-0.058594 0,-0.1171875 0.0352,-0.1523438 0.1289,-0.1757812 0.57422,-0.2460937 1.07812,-0.3046875 0.5625,-0.082031 1.25391,-0.1757812 1.82813,-0.4570312 0.24609,-0.1171875 0.48047,-0.2695313 0.66797,-0.46875 0.26953,-0.2929688 0.45703,-0.6914063 0.48047,-1.21875 v -0.1054688 c 0,-0.4335937 -0.082,-0.9609375 -0.48047,-1.3710937 -0.17578,-0.1640625 -0.38672,-0.3164063 -0.66797,-0.4335938 -0.39844,-0.1640625 -0.91406,-0.2460937 -1.60547,-0.2460937 h -3.16406 v 8.90624997 h 0.66797 V -8.7762469 h 2.10937 c 0.79688,0 1.53516,0.058594 1.99219,0.5390625 0.26953,0.2929688 0.43359,0.7265625 0.43359,1.40625 0,0.515625 -0.16406,0.9023438 -0.43359,1.1953125 -0.5625,0.5742188 -1.54688,0.8085938 -2.40235,0.9726563 -0.0117,0 -0.0234,0 -0.0234,0.011719 h -0.0117 c -0.28125,0.058594 -0.48047,0.1289063 -0.57422,0.2695313 -0.0352,0.046875 -0.0703,0.1289062 -0.0703,0.2109375 v 0.058594 c 0.0352,0.1523438 0.19922,0.2695313 0.46875,0.3632813 0.80859,0.2929687 1.45312,0.4335937 1.875,1.7226562 0.1875,0.5742188 0.46875,2.03906252 1.53515,2.10937502 h 0.14063 c 0.72656,0 0.97265,-0.3046875 1.14844,-0.65625 z m 1.09863,-8.28515622 v 0.7851562 c 0.48047,-0.2695312 1.17187,-0.65625 2.34375,-0.65625 h 0.52734 v 8.77734377 h 0.69141 V -8.7762469 h 0.52734 c 1.1836,0 1.88672,0.3867188 2.34375,0.65625 v -0.7851562 z m 0,0"
       style="fill:#dd8132;fill-opacity:1;fill-rule:nonzero;stroke:none"
       aria-label="Chocolate and Dessert"
       transform="matrix(1.3333333,0,0,1.3333333,280.85747,598.7876)" />
    <path
       id="path3"
       d="m 0,0 v -7.03 h -0.533 v 6.529 l -0.418,-0.272 -0.063,0.104 z"
       style="fill:#dd8132;fill-opacity:1;fill-rule:nonzero;stroke:none"
       transform="matrix(1.3333333,0,0,-1.3333333,590.7056,519.46413)" />
    <path
       id="path4"
       d="m 0,0 c 0,-1.442 -1.097,-2.33 -2.456,-2.33 -1.242,0 -2.266,0.784 -2.423,1.996 l 0.575,0.365 V 0 c 0,-1.337 0.824,-2.215 1.848,-2.215 1.024,0 1.85,0.836 1.85,2.215 0,1.368 -0.836,2.204 -1.86,2.214 h -0.02 c -1.348,0 -1.881,-0.981 -1.881,-0.981 l -0.105,0.062 0.22,3.447 h 3.646 V 3.938 C -0.732,4.043 -0.962,4.21 -1.526,4.21 H -4.179 L -4.356,1.441 c 0.469,0.575 1.075,0.888 1.9,0.888 C -1.097,2.329 0,1.431 0,0"
       style="fill:#dd8132;fill-opacity:1;fill-rule:nonzero;stroke:none"
       transform="matrix(1.3333333,0,0,-1.3333333,593.28187,542.51067)"
       clip-path="url(#clipPath5)" />
    <path
       id="path6"
       d="m 0,0 c 0.564,0 0.804,0.167 0.93,0.272 v -0.805 h -4.67 c 0,0 0.062,0.387 0.345,0.805 0.178,0.261 0.605,0.856 1.755,1.504 0.616,0.345 2.099,1.107 2.099,2.601 v 0.032 c 0,1.326 -0.866,2.026 -1.765,2.026 H -1.389 C -2.413,6.383 -3.239,5.557 -3.239,4.21 V 4.178 l -0.585,0.366 c 0.168,1.223 1.192,1.995 2.435,1.995 1.024,0 2.381,-0.386 2.455,-2.026 V 4.44 C 1.066,2.936 -0.742,2.1 -1.003,1.954 -1.317,1.786 -1.63,1.619 -1.932,1.442 -2.831,0.919 -3.281,0.303 -3.416,0 Z"
       style="fill:#dd8132;fill-opacity:1;fill-rule:nonzero;stroke:none"
       transform="matrix(1.3333333,0,0,-1.3333333,591.8256,561.5744)"
       clip-path="url(#clipPath7)" />
    <path
       id="path8"
       d="M 0,0 C 0,2.1 -0.898,3.437 -2.006,3.437 -3.103,3.437 -4.001,2.1 -4.001,0 c 0,-2.152 0.898,-3.437 1.995,-3.437 C -0.898,-3.437 0,-2.204 0,0 m 0.575,0 c 0,-2.267 -1.15,-3.552 -2.581,-3.552 -1.421,0 -2.58,1.327 -2.58,3.552 0,2.162 1.159,3.552 2.58,3.552 1.431,0 2.581,-1.39 2.581,-3.552"
       style="fill:#dd8132;fill-opacity:1;fill-rule:nonzero;stroke:none"
       transform="matrix(1.3333333,0,0,-1.3333333,592.70347,574.328)"
       clip-path="url(#clipPath9)" />
    <path
       id="path10"
       d="m 0,0 10.784,-39.273 c 0.25,-0.872 0.998,-1.371 1.809,-1.371 0.748,0 1.495,0.499 1.745,1.371 L 25.184,0 h 0.624 L 15.086,-39.023 c -0.499,-1.933 -2.182,-2.93 -3.803,-2.93 -1.683,0 -3.304,0.997 -3.865,2.93 L -3.366,0 Z"
       style="fill:#dd8132;fill-opacity:1;fill-rule:nonzero;stroke:none"
       transform="matrix(1.3333333,0,0,-1.3333333,204.71893,516.4424)"
       clip-path="url(#clipPath11)" />
    <path
       id="path12"
       d="m 0,0 c 0,11.969 -7.481,20.634 -16.707,20.634 -9.225,0 -16.644,-8.603 -16.644,-20.634 0,-12.031 7.419,-20.634 16.644,-20.634 C -7.481,-20.634 0,-12.218 0,0 m 3.678,0 c 0,-12.592 -9.102,-21.257 -20.385,-21.257 -11.22,0 -20.322,8.852 -20.322,21.257 0,12.405 9.102,21.257 20.322,21.257 C -5.424,21.257 3.678,12.343 3.678,0"
       style="fill:#dd8132;fill-opacity:1;fill-rule:nonzero;stroke:none"
       transform="matrix(1.3333333,0,0,-1.3333333,298.47747,544.36973)"
       clip-path="url(#clipPath13)" />
    <path
       id="path14"
       d="M 0,0 V 41.953 H 3.179 V 0.623 h 9.102 c 5.548,0 8.852,1.808 11.033,3.117 V 0 Z"
       style="fill:#dd8132;fill-opacity:1;fill-rule:nonzero;stroke:none"
       transform="matrix(1.3333333,0,0,-1.3333333,319.1764,572.38)"
       clip-path="url(#clipPath15)" />
    <path
       id="path16"
       d="M 0,0 C 4.364,0 9.227,1.496 13.403,6.109 L 13.901,5.735 C 10.161,1.496 4.8,-0.997 -1.247,-0.997 c -11.283,0 -20.384,8.851 -20.384,21.257 0,12.405 9.101,21.257 20.384,21.257 7.668,0 12.717,-3.429 15.523,-9.289 L 11.72,30.795 C 9.6,36.966 6.047,40.894 -1.247,40.894 c -9.226,0 -16.706,-8.603 -16.706,-20.634 0,-12.032 7.48,-19.699 16.644,-20.198 C -0.873,0.062 -0.436,0 0,0"
       style="fill:#dd8132;fill-opacity:1;fill-rule:nonzero;stroke:none"
       transform="matrix(1.3333333,0,0,-1.3333333,388.2476,571.3824)"
       clip-path="url(#clipPath17)" />
    <path
       id="path18"
       d="M 0,0 -6.296,23.065 C -6.545,24 -7.293,24.437 -8.041,24.437 -8.852,24.437 -9.6,24 -9.849,23.065 L -18.95,-9.974 c -0.25,-0.686 -0.437,-1.683 -0.437,-2.618 0,-0.873 0.187,-1.621 0.686,-2.057 0.437,-0.312 0.873,-0.499 1.434,-0.499 0.934,0 1.932,0.561 2.68,1.496 C -9.724,-7.418 -9.537,-2.68 0,0 M 7.793,-16.208 H 4.489 L 0.187,-0.623 c -5.984,-1.372 -7.231,-4.177 -9.351,-8.915 -1.557,-3.428 -3.303,-6.857 -6.981,-6.857 h -0.188 c -1.308,0.062 -2.243,0.312 -2.867,0.998 -0.498,0.499 -0.748,1.122 -0.81,1.745 0,0.062 -0.063,0.062 -0.063,0.062 -0.062,0.312 -0.062,0.624 -0.062,0.936 0,0.623 0.062,1.309 0.25,1.87 l 9.288,33.662 c 0.561,1.933 2.181,2.93 3.865,2.93 1.621,0 3.304,-0.997 3.802,-2.93 z"
       style="fill:#dd8132;fill-opacity:1;fill-rule:nonzero;stroke:none"
       transform="matrix(1.3333333,0,0,-1.3333333,445.76627,550.76973)"
       clip-path="url(#clipPath19)" />
    <path
       id="path20"
       d="M 0,0 V -41.953 H -3.74 L -27.678,-1.06 v -40.893 h -0.623 V 0 h 3.74 L -0.624,-40.894 V 0 Z"
       style="fill:#dd8132;fill-opacity:1;fill-rule:nonzero;stroke:none"
       transform="matrix(1.3333333,0,0,-1.3333333,509.68573,516.4424)"
       clip-path="url(#clipPath21)" />
    <path
       id="path22"
       d="m 0,0 c 0,11.969 -7.481,20.634 -16.707,20.634 -9.225,0 -16.644,-8.603 -16.644,-20.634 0,-12.031 7.419,-20.634 16.644,-20.634 C -7.481,-20.634 0,-12.218 0,0 m 3.678,0 c 0,-12.592 -9.102,-21.257 -20.385,-21.257 -11.22,0 -20.322,8.852 -20.322,21.257 0,12.405 9.102,21.257 20.322,21.257 C -5.424,21.257 3.678,12.343 3.678,0"
       style="fill:#dd8132;fill-opacity:1;fill-rule:nonzero;stroke:none"
       transform="matrix(1.3333333,0,0,-1.3333333,574.85093,544.36973)"
       clip-path="url(#clipPath23)" />
  </g>
</svg>
